<?xml version="1.0" encoding="UTF-8"?>
<svg version="1.1" viewBox="0 0 24 24" xmlns="http://www.w3.org/2000/svg">
 <g fill="#6e6e6e">
  <path d="m11 2.8c-3.6 0-6.7 1.9-8.4 4.8l-0.0064-0.0037c-0.0028 0.0092-0.0064 0.017-0.0092 0.026-0.81 1.4-1.3 3-1.3 4.7 0 5.2 4.3 9.5 9.7 9.5v-3.5c-4.7 0.063-7.6-5.1-5.2-9l-0.013-0.0064c1.1-1.8 3.1-2.9 5.2-2.9 1.2 0 2.3 0.34 3.3 0.94l2.6-2.5c-1.6-1.2-3.7-2-5.9-2z"/>
  <path d="m17 12h3.6a9.4 9.4 0 0 0-2.6-6.5l-2.6 2.5a5.9 5.9 0 0 1 1.6 4"/>
  <path d="m14 13h-5.3l9.4 9.2 5.3-0.034z"/>
 </g>
</svg>
